@startuml
'https://plantuml.com/state-diagram

scale 350 width
skinparam defaultFontSize 16

stateInitialization:        Entry: Set variables and initialize systems\n Exit: Send boot message
statePreOperational:        Entry: Blink led at 1Hz  \n Do: accept parameter changes \n Exit: Disable timer0
stateOperational:           Entry: Turn led and motor on\n Do: update speed using P_controller\n Exit: Turn motor off
stateStopped:               Entry: Enable timer0 for blinking led.\n  Exit: disable timer0

[*]-down->stateInitialization: Initial state
stateInitialization -down-> statePreOperational: autonomous\n msg: Boot-up
statePreOperational -up-> stateInitialization: command: reset
statePreOperational -down-> stateOperational: command: set
statePreOperational -down-> stateStopped: command: fault
stateStopped -up-> statePreOperational: command: clear fault
stateOperational -up-> statePreOperational: command: pre-op
stateOperational -up-> stateInitialization: command: reset
stateOperational -right-> stateStopped: command: fault
stateStopped -right-> stateOperational: command: clear fault
stateStopped -> stateInitialization: command: reset

@enduml